-
      the fast  and The Hottest Private Tracker on the net

(((--Registration is Open!!--)))

Please Seed back to make the speed Faster!!!

and don't forget to visit ......


 ............ NFO .............
-General
Unique ID                                : 182358421170188833632538518185353351515 (0x8930F4532F0FCF289041FE59E893115B)
Complete name                            : Boardwalk.Empire.S03E02.720p.WEB-DL.DD5.1.H.264-KiNGS.mkv
Format                                   : Matroska
Format version                           : Version 2
File size                                : 1.77 GiB
Duration                                 : 57mn 37s
Overall bit rate                         : 4 407 Kbps
Encoded date                             : UTC 2012-09-28 07:38:33
Writing application                      : mkvmerge v5.8.0 ('No Sleep / Pillow') built on Sep  2 2012 15:37:04
Writing library                          : libebml v1.2.3 + libmatroska v1.3.0

Video
ID                                       : 1
Format                                   : AVC
Format/Info                              : Advanced Video Codec
Format profile                           : High@L3.1
Format settings, CABAC                   : No
Format settings, ReFrames                : 2 frames
Format settings, GOP                     : N=1
Codec ID                                 : V_MPEG4/ISO/AVC
Duration                                 : 57mn 37s
Bit rate                                 : 3 936 Kbps
Width                                    : 1 280 pixels
Height                                   : 720 pixels
Display aspect ratio                     : 16:9
Frame rate                               : 23.976 fps
Color space                              : YUV
Chroma subsampling                       : 4:2:0
Bit depth                                : 8 bits
Scan type                                : Progressive
Bits/(Pixel*Frame)                       : 0.178
Stream size                              : 1.58 GiB (89%)
Language                                 : English
Default                                  : Yes
Forced                                   : No
Color primaries                          : BT.709-5, BT.1361, IEC 61966-2-4, SMPTE RP177
Transfer characteristics                 : BT.709-5, BT.1361
Matrix coefficients                      : BT.709-5, BT.1361, IEC 61966-2-4 709, SMPTE RP177

Audio
ID                                       : 2
Format                                   : AC-3
Format/Info                              : Audio Coding 3
Mode extension                           : CM (complete main)
Format settings, Endianness              : Big
Codec ID                                 : A_AC3
Duration                                 : 57mn 37s
Bit rate mode                            : Constant
Bit rate                                 : 384 Kbps
Channel(s)                               : 6 channels
Channel positions                        : Front: L C R, Side: L R, LFE
Sampling rate                            : 48.0 KHz
Bit depth                                : 16 bits
Compression mode                         : Lossy
Stream size                              : 158 MiB (9%)
Language                                 : English
Default                                  : Yes
Forced                                   : No